<svg width="19" height="18" viewBox="0 0 19 18" fill="none" xmlns="http://www.w3.org/2000/svg">
<path d="M16.2634 2.77776C15.8454 2.3597 15.349 2.02812 14.8028 1.80196C14.2565 1.57581 13.671 1.45953 13.0798 1.45975C12.4885 1.45997 11.9031 1.5767 11.357 1.80326C10.8109 2.02982 10.3148 2.36178 9.89709 2.78015L9.35178 3.3321L8.81101 2.78135L8.8075 2.77783C8.38963 2.35996 7.89355 2.02849 7.34759 1.80235C6.80162 1.5762 6.21645 1.4598 5.6255 1.4598C5.03455 1.4598 4.44939 1.5762 3.90342 1.80235C3.35745 2.02849 2.86138 2.35996 2.44351 2.77783L2.20058 3.02076C1.35667 3.86467 0.882568 5.00926 0.882568 6.20273C0.882568 7.39621 1.35667 8.5408 2.20058 9.38471L8.61213 15.7962L9.33617 16.5548L9.35344 16.5375L9.37218 16.5562L10.0506 15.8405L16.5064 9.3846C17.349 8.54002 17.8222 7.39568 17.8222 6.20263C17.8222 5.00958 17.349 3.86524 16.5064 3.02066L16.2634 2.77776ZM15.7107 8.58912L9.35344 14.9465L2.99603 8.58912C2.3631 7.95619 2.00752 7.09775 2.00752 6.20265C2.00752 5.30755 2.3631 4.44911 2.99603 3.81617L3.23899 3.57324C3.87162 2.94062 4.72954 2.58507 5.6242 2.58474C6.51886 2.5844 7.37705 2.9393 8.01015 3.57145L9.34936 4.93505L10.6949 3.57324C11.0083 3.25984 11.3804 3.01124 11.7899 2.84163C12.1993 2.67202 12.6382 2.58472 13.0814 2.58472C13.5246 2.58472 13.9635 2.67202 14.373 2.84163C14.7825 3.01124 15.1545 3.25984 15.4679 3.57324L15.7108 3.81614C16.3428 4.44959 16.6977 5.30786 16.6977 6.20266C16.6977 7.09745 16.3427 7.9557 15.7107 8.58912Z" fill="black"/>
</svg>
