<svg width="165" height="68" viewBox="0 0 165 68" fill="none" xmlns="http://www.w3.org/2000/svg">
<path d="M20.8 50.5C16.9 50.5 13.6 49.7667 10.9 48.3C8.23333 46.8333 6.2 44.75 4.8 42.05C3.4 39.35 2.7 36.15 2.7 32.45C2.7 29.65 3.1 27.1333 3.9 24.9C4.73333 22.6667 5.91667 20.7667 7.45 19.2C9.01667 17.6 10.9167 16.3833 13.15 15.55C15.3833 14.6833 17.9167 14.25 20.75 14.25C22.6167 14.25 24.4833 14.4833 26.35 14.95C28.25 15.3833 30.0333 16.1333 31.7 17.2C32.2667 17.5667 32.6333 18.0167 32.8 18.55C33 19.0833 33.0333 19.6333 32.9 20.2C32.7667 20.7333 32.5167 21.2 32.15 21.6C31.7833 22 31.3167 22.25 30.75 22.35C30.2167 22.45 29.6167 22.3167 28.95 21.95C27.6833 21.2167 26.4 20.6833 25.1 20.35C23.8 20.0167 22.35 19.85 20.75 19.85C18.2833 19.85 16.2 20.35 14.5 21.35C12.8 22.3167 11.5167 23.7333 10.65 25.6C9.81667 27.4667 9.4 29.75 9.4 32.45C9.4 36.55 10.3833 39.6667 12.35 41.8C14.3167 43.9333 17.2333 45 21.1 45C22.4333 45 23.7833 44.8667 25.15 44.6C26.5167 44.3333 27.85 43.9667 29.15 43.5L27.9 46.35V35.7H22.4C21.5667 35.7 20.9167 35.4833 20.45 35.05C20.0167 34.6167 19.8 34.0333 19.8 33.3C19.8 32.5333 20.0167 31.95 20.45 31.55C20.9167 31.15 21.5667 30.95 22.4 30.95H30.65C31.4833 30.95 32.1167 31.1833 32.55 31.65C33.0167 32.0833 33.25 32.7167 33.25 33.55V45.7C33.25 46.4333 33.1 47.05 32.8 47.55C32.5333 48.05 32.0833 48.4167 31.45 48.65C29.9833 49.1833 28.3 49.6333 26.4 50C24.5 50.3333 22.6333 50.5 20.8 50.5ZM43.1664 50.35C42.1664 50.35 41.3997 50.05 40.8664 49.45C40.3331 48.85 40.0664 48.0167 40.0664 46.95V28.6C40.0664 27.5 40.3331 26.6667 40.8664 26.1C41.3997 25.5 42.1664 25.2 43.1664 25.2C44.1664 25.2 44.9331 25.5 45.4664 26.1C46.0331 26.6667 46.3164 27.5 46.3164 28.6V46.95C46.3164 48.0167 46.0497 48.85 45.5164 49.45C44.9831 50.05 44.1997 50.35 43.1664 50.35ZM43.1664 20.55C41.9997 20.55 41.0831 20.2667 40.4164 19.7C39.7831 19.1 39.4664 18.2833 39.4664 17.25C39.4664 16.1833 39.7831 15.3667 40.4164 14.8C41.0831 14.2333 41.9997 13.95 43.1664 13.95C44.3664 13.95 45.2831 14.2333 45.9164 14.8C46.5497 15.3667 46.8664 16.1833 46.8664 17.25C46.8664 18.2833 46.5497 19.1 45.9164 19.7C45.2831 20.2667 44.3664 20.55 43.1664 20.55ZM57.6105 50.4C56.6105 50.4 55.8272 50.1333 55.2605 49.6C54.7272 49.0333 54.4605 48.2333 54.4605 47.2V30.25H52.1605C51.3605 30.25 50.7439 30.05 50.3105 29.65C49.8772 29.2167 49.6605 28.6333 49.6605 27.9C49.6605 27.1333 49.8772 26.55 50.3105 26.15C50.7439 25.75 51.3605 25.55 52.1605 25.55H56.2605L54.4605 27.2V25.5C54.4605 22.0667 55.3272 19.5 57.0605 17.8C58.7939 16.0667 61.2939 15.05 64.5605 14.75L66.2605 14.6C66.9272 14.5333 67.4605 14.65 67.8605 14.95C68.2605 15.2167 68.5272 15.5833 68.6605 16.05C68.7939 16.4833 68.8105 16.9333 68.7105 17.4C68.6105 17.8667 68.3939 18.2833 68.0605 18.65C67.7605 18.9833 67.3605 19.1667 66.8605 19.2L66.1605 19.25C64.2605 19.3833 62.8772 19.8667 62.0105 20.7C61.1439 21.5333 60.7105 22.8 60.7105 24.5V26.35L59.9105 25.55H64.9605C65.7605 25.55 66.3772 25.75 66.8105 26.15C67.2439 26.55 67.4605 27.1333 67.4605 27.9C67.4605 28.6333 67.2439 29.2167 66.8105 29.65C66.3772 30.05 65.7605 30.25 64.9605 30.25H60.7105V47.2C60.7105 49.3333 59.6772 50.4 57.6105 50.4ZM80.8563 50.5C78.6896 50.5 76.8729 50.1333 75.4063 49.4C73.9729 48.6667 72.9063 47.6 72.2063 46.2C71.5063 44.7667 71.1563 43 71.1563 40.9V30.25H68.5563C67.7563 30.25 67.1396 30.05 66.7063 29.65C66.2729 29.2167 66.0562 28.6333 66.0562 27.9C66.0562 27.1333 66.2729 26.55 66.7063 26.15C67.1396 25.75 67.7563 25.55 68.5563 25.55H71.1563V21C71.1563 19.9667 71.4229 19.1833 71.9563 18.65C72.5229 18.1167 73.3063 17.85 74.3063 17.85C75.3063 17.85 76.0729 18.1167 76.6063 18.65C77.1396 19.1833 77.4063 19.9667 77.4063 21V25.55H82.7063C83.5063 25.55 84.1229 25.75 84.5563 26.15C84.9896 26.55 85.2063 27.1333 85.2063 27.9C85.2063 28.6333 84.9896 29.2167 84.5563 29.65C84.1229 30.05 83.5063 30.25 82.7063 30.25H77.4063V40.55C77.4063 42.15 77.7563 43.35 78.4563 44.15C79.1563 44.95 80.2896 45.35 81.8563 45.35C82.4229 45.35 82.9229 45.3 83.3563 45.2C83.7896 45.1 84.1729 45.0333 84.5063 45C84.9063 44.9667 85.2396 45.1 85.5063 45.4C85.7729 45.6667 85.9063 46.2333 85.9063 47.1C85.9063 47.7667 85.7896 48.3667 85.5563 48.9C85.3563 49.4 84.9729 49.75 84.4063 49.95C83.9729 50.0833 83.4063 50.2 82.7063 50.3C82.0063 50.4333 81.3896 50.5 80.8563 50.5Z" fill="#FF0000"/>
<path d="M92.4457 50.4C91.5124 50.4 90.7957 50.1333 90.2957 49.6C89.7957 49.0667 89.5457 48.3333 89.5457 47.4V17.35C89.5457 16.3833 89.8124 15.65 90.3457 15.15C90.879 14.6167 91.6124 14.35 92.5457 14.35C93.379 14.35 94.029 14.5167 94.4957 14.85C94.9957 15.15 95.4457 15.6833 95.8457 16.45L108.196 39.3H106.596L118.946 16.45C119.346 15.6833 119.779 15.15 120.246 14.85C120.712 14.5167 121.362 14.35 122.196 14.35C123.129 14.35 123.846 14.6167 124.346 15.15C124.846 15.65 125.096 16.3833 125.096 17.35V47.4C125.096 48.3333 124.846 49.0667 124.346 49.6C123.879 50.1333 123.162 50.4 122.196 50.4C121.262 50.4 120.546 50.1333 120.046 49.6C119.546 49.0667 119.296 48.3333 119.296 47.4V24.25H120.396L109.896 43.4C109.562 43.9667 109.212 44.3833 108.846 44.65C108.479 44.9167 107.979 45.05 107.346 45.05C106.712 45.05 106.196 44.9167 105.796 44.65C105.396 44.35 105.046 43.9333 104.746 43.4L94.1457 24.2H95.3457V47.4C95.3457 48.3333 95.0957 49.0667 94.5957 49.6C94.129 50.1333 93.4124 50.4 92.4457 50.4ZM144.304 50.5C141.537 50.5 139.154 49.9833 137.154 48.95C135.154 47.9167 133.604 46.45 132.504 44.55C131.437 42.65 130.904 40.4 130.904 37.8C130.904 35.2667 131.421 33.05 132.454 31.15C133.521 29.25 134.971 27.7667 136.804 26.7C138.671 25.6 140.787 25.05 143.154 25.05C144.887 25.05 146.437 25.3333 147.804 25.9C149.204 26.4667 150.387 27.2833 151.354 28.35C152.354 29.4167 153.104 30.7167 153.604 32.25C154.137 33.75 154.404 35.45 154.404 37.35C154.404 37.95 154.187 38.4167 153.754 38.75C153.354 39.05 152.771 39.2 152.004 39.2H135.954V35.6H150.004L149.204 36.35C149.204 34.8167 148.971 33.5333 148.504 32.5C148.071 31.4667 147.421 30.6833 146.554 30.15C145.721 29.5833 144.671 29.3 143.404 29.3C142.004 29.3 140.804 29.6333 139.804 30.3C138.837 30.9333 138.087 31.85 137.554 33.05C137.054 34.2167 136.804 35.6167 136.804 37.25V37.6C136.804 40.3333 137.437 42.3833 138.704 43.75C140.004 45.0833 141.904 45.75 144.404 45.75C145.271 45.75 146.237 45.65 147.304 45.45C148.404 45.2167 149.437 44.8333 150.404 44.3C151.104 43.9 151.721 43.7333 152.254 43.8C152.787 43.8333 153.204 44.0167 153.504 44.35C153.837 44.6833 154.037 45.1 154.104 45.6C154.171 46.0667 154.071 46.55 153.804 47.05C153.571 47.55 153.154 47.9833 152.554 48.35C151.387 49.0833 150.037 49.6333 148.504 50C147.004 50.3333 145.604 50.5 144.304 50.5Z" fill="black"/>
</svg>
